PathFileType	4	(X/Y/Z)	C:/Users/beibeiliu/ov580/test_trc/User2\sequence.5_training_dense_left.trc
DataRate	CameraRate	NumFrames	NumMarkers	Units	OrigDataRate	OrigDataStartFrame	OrigNumFrames
120	120	17	19	mm	120	25	72
Frame#	Time	ThumbCMC			ThumbMCP			ThumbIP			ThumbTip			IndexMCP			IndexPIP			IndexTip			MiddleMCP			MiddlePIP			MiddleTip			RingMCP			RingPIP			RingTip			PinkyMCP			PinkyPIP			PinkyTip			BackHand1			BackHand2			BackHand3	
		X0	Y0	Z0	X1	Y1	Z1	X2	Y2	Z2	X3	Y3	Z3	X4	Y4	Z4	X5	Y5	Z5	X6	Y6	Z6	X7	Y7	Z7	X8	Y8	Z8	X9	Y9	Z9	X10	Y10	Z10	X11	Y11	Z11	X12	Y12	Z12	X13	Y13	Z13	X14	Y14	Z14	X15	Y15	Z15	X16	Y16	Z16	X17	Y17	Z17	X18	Y18	Z18	
24	0.2	-198.318	21.4594	-20.7478	-162.54	26.2455	-38.8387	-136.844	18.1544	-55.1095	-117.97	1.10178	-71.7597	-187.308	-5.34264	-99.1803	-167.669	-7.61858	-117.081	-145.642	-9.60784	-136.427	-173.914	-28.8887	-95.2104	-136.787	-24.3028	-93.3772	-125.58	-10.601	-53.6954	-159.589	-48.1723	-80.7017	-131.275	-35.2114	-73.0827	-131.785	-20.1531	-41.2971	-155.121	-59.6247	-62.4389	-131.675	-43.1346	-49.7641	-147.284	-23.3904	-27.8298	-214.751	-47.3221	-42.2262	-227.022	-48.425	-10.9981	-228.04	-15.9762	-30.5153	
25	0.208333	-192.162	18.116	-15.6496	-156.392	24.8223	-34.7516	-129.09	14.1809	-59.3474	-115.827	-6.00429	-73.6443	-186.446	-5.19043	-99.369	-166.188	-6.30043	-119.375	-145.552	-10.0914	-136.621	-176.032	-25.8988	-97.5695	-138.499	-21.996	-95.2143	-127.117	-14.8755	-57.06	-164.51	-47.5361	-83.5043	-132.966	-38.3811	-72.5996	-134.141	-24.195	-38.4492	-161.896	-58.6293	-65.6946	-135.861	-44.0318	-51.3673	-149.215	-28.5576	-26.6559	-217.49	-46.4867	-37.843	-229.793	-38.7332	-10.6007	-225.681	-9.02096	-29.0679	
26	0.216667	-176.908	19.3658	-12.1737	-143.855	13.6951	-33.0931	-125.022	-1.46301	-57.7871	-120.754	-23.1725	-73.2891	-187.386	10.8662	-92.1355	-173.585	2.29902	-116.364	-156.698	-2.50629	-136.463	-180.846	-21.5474	-96.2201	-145.91	-24.2012	-98.2629	-127.493	-24.7436	-63.955	-173.248	-39.7498	-87.0757	-141.29	-41.3212	-78.2912	-136.345	-29.9285	-43.1397	-175.318	-60.4534	-68.6967	-144.753	-49.3747	-56.9362	-148.512	-36.2181	-29.5802	-220.103	-36.4176	-40.3318	-231.608	-32.7886	-3.44987	-218.764	2.78109	-23.7506	
27	0.225	-161.822	6.30697	-5.79549	-130.426	-4.30207	-28.7248	-118.277	-20.7224	-62.8121	-122.881	-40.6614	-82.8493	-180.451	16.1928	-83.9662	-168.466	17.6379	-113.66	-161.285	8.81825	-137.433	-180.027	-11.4025	-94.6342	-151.41	-33.2854	-100.445	-131.341	-38.8928	-63.5895	-183.945	-38.7641	-86.8549	-151.821	-51.494	-81.0287	-143.026	-48.7812	-49.3148	-189.587	-58.7529	-72.6627	-158.508	-60.6617	-64.9589	-156.011	-49.0111	-33.8696	-218.213	-20.3735	-33.7661	-225.827	-23.0455	1.16151	-205.195	8.20278	-17.7701	
28	0.233333	-145.969	-5.43901	-5.46815	-127.262	-24.2484	-28.6768	-120.756	-40.5769	-62.1282	-131.314	-55.1948	-82.7173	-168.047	20.5048	-80.0606	-162.606	21.7827	-105.95	-157.892	21.5717	-138.011	-177.882	-6.89283	-88.42	-153.968	-36.2592	-101.413	-142.905	-54.0463	-71.311	-185.17	-34.5909	-87.128	-159.966	-54.6966	-84.8019	-150.633	-57.2663	-52.331	-197.443	-49.5909	-73.6815	-168.59	-67.5736	-65.7805	-163.186	-58.8318	-34.8521	-216.59	-13.3315	-33.0022	-218.122	-14.3466	7.1459	-191.502	9.98985	-8.87392	
29	0.241667	-141.721	-18	-3.04592	-127.992	-36.8342	-33.4155	-120.565	-53.2934	-65.8875	-138.248	-65.6786	-88.687	-163.068	17.5789	-75.5968	-156.168	23.6886	-103.104	-151.416	28.0682	-132.893	-179.962	-9.74091	-90.6416	-161.908	-40.1392	-103.056	-148.339	-61.3026	-69.8535	-189.309	-32.2379	-85.9933	-170.876	-58.0181	-86.4375	-162.152	-66.3249	-53.6593	-202.118	-45.3145	-72.8922	-177.631	-69.419	-68.1667	-170.709	-61.8414	-37.3057	-208.72	-7.84761	-25.6831	-210.927	-12.0006	6.77459	-180.838	7.86248	-6.20174	
30	0.25	-144.96	-23.6306	-8.53716	-127.072	-43.3375	-38.3351	-130.111	-59.5277	-66.517	-148.023	-68.4111	-90.227	-158.097	17.497	-79.105	-158.273	19.5014	-102.447	-155.979	24.6039	-134.913	-182.381	-10.6324	-88.1858	-168.593	-43.4266	-104.897	-158.236	-65.8961	-75.2582	-193.691	-33.3544	-88.3792	-178.648	-62.8877	-87.0432	-164.593	-65.9645	-54.3941	-207.388	-47.571	-74.6649	-186.924	-71.2991	-70.3179	-175.86	-65.3589	-35.7286	-213.604	-7.84653	-28.6164	-212.421	-13.3655	8.13991	-180.7	4.51752	-7.72754	
31	0.258333	-144.041	-26.885	-6.82556	-127.079	-47.746	-38.6098	-131.646	-61.0141	-68.0786	-146.261	-70.8525	-94.0262	-161.442	12.1056	-81.1175	-155.298	14.1147	-105.695	-152.949	13.3617	-135.907	-180.487	-12.2343	-92.424	-168.413	-44.1184	-104.958	-155.958	-67.9218	-75.7588	-198.267	-34.323	-85.8577	-182.131	-59.8551	-90.5723	-168.342	-69.1005	-56.4099	-212.964	-47.626	-72.7966	-189.532	-74.7016	-70.0726	-179.318	-69.6955	-41.7156	-212.421	-8.58747	-27.0021	-209.989	-14.7593	9.21041	-175.584	2.43234	-8.61418	
32	0.266667	-144.685	-28.6484	-8.69751	-130.149	-48.4168	-37.6822	-131.228	-63.7934	-71.078	-150.223	-70.9778	-92.4736	-158.928	5.31361	-79.8062	-156.59	-0.430941	-110.636	-155.185	-9.18072	-138.323	-183.909	-13.6729	-89.728	-172.296	-45.0407	-107.301	-159.068	-68.5282	-77.3215	-197.449	-33.0634	-87.3368	-185.216	-61.8699	-92.4306	-171.443	-71.1742	-59.5835	-214.542	-50.2254	-74.2364	-189.393	-72.254	-71.816	-180.123	-67.4372	-39.7987	-213.604	-9.40856	-28.7652	-210.508	-15.0178	8.33876	-181.395	-1.74673	-8.78801	
33	0.275	-142.683	-27.9602	-8.57521	-130.66	-48.3622	-40.7919	-135.457	-63.169	-76.2312	-151.078	-71.2858	-93.1847	-163.614	-1.49168	-83.8406	-159.869	-10.6377	-111.957	-155.748	-24.8024	-137.628	-182.891	-14.604	-93.178	-173.775	-45.6098	-107.495	-161.918	-69.0987	-79.1142	-197.821	-34.7585	-89.5403	-186.424	-61.8474	-92.5464	-173.136	-71.106	-58.0634	-214.525	-51.9034	-77.8098	-191.035	-72.4721	-71.4461	-182.16	-71.6565	-41.0414	-211.079	-7.83247	-29.6275	-211.89	-12.1374	3.44805	-181.648	1.40893	-10.9329	
34	0.283333	-144.842	-29.1306	-8.97241	-130.404	-51.0675	-39.9118	-135.72	-64.4772	-72.1937	-154.258	-71.3761	-93.7056	-160.82	-1.91183	-83.6082	-158.175	-15.1804	-115.008	-156.647	-27.1159	-135.102	-182.752	-14.4964	-94.8247	-173.952	-48.5697	-106.601	-161.778	-69.3429	-74.0992	-201.179	-34.454	-89.1473	-183.188	-62.8293	-92.4714	-173.369	-71.2442	-57.4274	-216.903	-48.2561	-73.8654	-191.379	-73.7986	-71.6604	-181.096	-67.8587	-41.5642	-210.71	-7.94636	-29.5661	-212.276	-13.3005	7.17896	-181.91	0.356866	-11.5068	
35	0.291667	-142.484	-32.6519	-7.57589	-133.006	-52.3422	-42.4072	-138.096	-66.2249	-71.6126	-156.692	-74.1374	-92.6624	-157.563	-0.39086	-84.4406	-151.23	-10.2866	-115.12	-151.799	-21.3547	-136.173	-185.361	-17.0145	-94.6871	-172.076	-48.8325	-106.444	-160.894	-71.433	-76.6792	-201.101	-36.1053	-88.7733	-184.27	-65.6328	-91.4244	-173	-72.5885	-59.8833	-214.425	-51.3281	-77.891	-191.121	-75.365	-70.4365	-184.186	-71.4864	-41.5281	-212.386	-8.36801	-31.0427	-212.947	-12.709	5.79848	-179.349	-2.75872	-9.63571	
36	0.3	-141.641	-35.2078	-8.06707	-134.999	-56.0351	-41.4446	-139.873	-70.7929	-70.9449	-156.853	-79.2338	-96.3709	-160.375	-0.978972	-83.3276	-155.9	-3.66914	-109.363	-154.719	-10.369	-137.36	-184.033	-16.8173	-91.3842	-173.814	-47.7945	-107.792	-168.129	-75.069	-77.9259	-201.933	-36.0788	-85.7436	-188.864	-64.4723	-92.0567	-173.593	-74.3396	-55.7778	-213.065	-51.6487	-75.1989	-193.021	-74.8424	-69.2393	-185.442	-71.5929	-37.0556	-213.046	-11.6432	-26.7128	-210.66	-12.8303	6.10871	-177.999	-4.29836	-9.45357	
37	0.308333	-143.942	-38.0981	-10.6426	-137.181	-59.81	-43.1175	-143.001	-75.887	-70.463	-161.173	-83.6885	-94.6921	-162.685	0.0430815	-85.5124	-159.38	1.35774	-111.348	-157.249	0.228988	-138.364	-188.863	-19.7714	-88.7124	-181.469	-52.282	-106.13	-173.522	-77.6424	-77.1665	-206.526	-38.8419	-84.0467	-190.04	-69.3357	-88.38	-180.183	-79.3704	-52.7439	-221.134	-50.319	-69.649	-200.763	-78.9361	-66.8127	-185.495	-73.831	-40.3021	-208.087	-11.3225	-23.2296	-212.147	-14.0709	9.21628	-173.219	-3.95311	-10.7313	
38	0.316667	-148.582	-38.6847	-11.3605	-138.872	-64.2883	-42.613	-148.098	-79.9211	-73.6538	-169.998	-87.0549	-89.2161	-169.798	-1.34412	-80.7962	-168.076	2.4321	-111.312	-175.864	3.91087	-137.35	-191.432	-20.9392	-89.5549	-189.438	-56.0621	-105.149	-178.478	-80.8346	-73.3077	-209.499	-41.2761	-84.0783	-199.388	-71.7401	-87.1679	-185.013	-81.1908	-55.1383	-224.064	-53.6064	-68.4273	-207.648	-81.4778	-64.1362	-192.003	-74.8869	-32.1288	-214.553	-13.7955	-22.8918	-208.357	-13.2311	9.44935	-175.516	-3.97832	-10.3904	
39	0.325	-156.499	-38.6275	-14.3049	-151.021	-63.0949	-42.1273	-160.67	-81.018	-76.7717	-185.832	-87.1173	-94.4277	-184.501	-2.14036	-87.545	-186.753	0.669951	-109.886	-195.176	3.20059	-139.651	-207.969	-25.7983	-92.9211	-201.716	-60.3392	-104.236	-190.873	-81.7968	-76.4935	-219.954	-42.5893	-83.179	-210.727	-74.4662	-84.8335	-195.135	-83.1337	-51.6219	-234.613	-57.0346	-68.2482	-215.452	-82.5579	-62.0301	-201.198	-73.3982	-32.815	-219.864	-11.1243	-24.041	-217.234	-14.161	9.03635	-181.888	-5.3833	-11.1736	
40	0.333333	-163.426	-38.2723	-21.39	-163.495	-62.0763	-50.2327	-172.844	-79.956	-80.7686	-197.128	-88.4922	-97.513	-204.378	-3.02932	-90.2403	-208.622	-2.8744	-115.794	-221.033	-4.59126	-139.768	-223.335	-27.4362	-93.9519	-217.453	-60.6034	-106.382	-197.26	-80.6966	-78.2556	-237.638	-46.3016	-83.5788	-224.515	-75.8859	-86.9566	-203.45	-80.9725	-54.1284	-247.497	-55.5539	-67.2957	-228.857	-84.0432	-62.7175	-208.968	-74.9391	-37.3516	-237.619	-13.3837	-28.2525	-228.039	-13.9063	7.50827	-198.207	-4.00253	-15.0448	
